<?xml version="1.0"?>
<svg xmlns="http://www.w3.org/2000/svg" xmlns:xlink="http://www.w3.org/1999/xlink" xmlns:svgjs="http://svgjs.com/svgjs" version="1.1" width="512" height="512" x="0" y="0" viewBox="0 0 512.127 512.127" style="enable-background:new 0 0 512 512" xml:space="preserve" class=""><g>
<g xmlns="http://www.w3.org/2000/svg">
	<g>
		<g>
			<path d="M418.176,57.999c-8.785-7.2-18.031-13.816-27.68-19.808l-16.832,27.2c8.475,5.239,16.594,11.033,24.304,17.344     L418.176,57.999z" fill="#ffffff" data-original="#000000" style="" class=""/>
			<path d="M464.656,107.663c-6.617-9.256-13.832-18.07-21.6-26.384l-23.36,21.888c6.806,7.271,13.123,14.984,18.912,23.088     L464.656,107.663z" fill="#ffffff" data-original="#000000" style="" class=""/>
			<path d="M482.56,136.671l-28.288,14.976c57.72,109.421,15.809,244.916-93.612,302.636     c-109.421,57.72-244.916,15.809-302.636-93.612S42.214,115.755,151.635,58.034c32.2-16.986,68.055-25.867,104.46-25.876     c31.424-0.087,62.509,6.495,91.2,19.312l13.056-29.216C231.222-35.324,79.866,22.679,22.286,151.808     C-35.292,280.937,22.71,432.294,151.84,489.873c129.129,57.579,280.486-0.424,338.065-129.553     c14.617-32.781,22.178-68.269,22.191-104.161C512.085,214.524,501.948,173.516,482.56,136.671z" fill="#ffffff" data-original="#000000" style="" class=""/>
			<path d="M240.052,165.827c-12.139-13.765-29.603-21.655-47.956-21.668h-80v224h80c35.346-0.024,63.98-28.698,63.956-64.044     c-0.013-18.353-7.903-35.817-21.668-47.956C260.893,232.779,263.431,192.336,240.052,165.827z M192.096,336.159h-48v-64h48     c17.673,0,32,14.327,32,32C224.096,321.832,209.769,336.159,192.096,336.159z M192.096,240.159h-48v-64h48     c17.673,0,32,14.327,32,32S209.769,240.159,192.096,240.159z" fill="#ffffff" data-original="#000000" style="" class=""/>
			<path d="M432.096,288.159c2.044-41.915-30.102-77.633-72-80c-41.898,2.367-74.044,38.085-72,80     c-2.044,41.915,30.102,77.633,72,80c18.273-0.149,35.717-7.645,48.4-20.8l-22.72-22.4c-6.717,7.019-15.966,11.053-25.68,11.2     c-18.272-1.132-33.62-14.156-37.712-32h109.712V288.159z M322.384,272.159c4.092-17.844,19.44-30.868,37.712-32     c18.273,1.132,33.62,14.156,37.712,32H322.384z" fill="#ffffff" data-original="#000000" style="" class=""/>
			<rect x="320.096" y="144.159" width="80" height="32" fill="#ffffff" data-original="#000000" style="" class=""/>
		</g>
	</g>
</g>
<g xmlns="http://www.w3.org/2000/svg">
</g>
<g xmlns="http://www.w3.org/2000/svg">
</g>
<g xmlns="http://www.w3.org/2000/svg">
</g>
<g xmlns="http://www.w3.org/2000/svg">
</g>
<g xmlns="http://www.w3.org/2000/svg">
</g>
<g xmlns="http://www.w3.org/2000/svg">
</g>
<g xmlns="http://www.w3.org/2000/svg">
</g>
<g xmlns="http://www.w3.org/2000/svg">
</g>
<g xmlns="http://www.w3.org/2000/svg">
</g>
<g xmlns="http://www.w3.org/2000/svg">
</g>
<g xmlns="http://www.w3.org/2000/svg">
</g>
<g xmlns="http://www.w3.org/2000/svg">
</g>
<g xmlns="http://www.w3.org/2000/svg">
</g>
<g xmlns="http://www.w3.org/2000/svg">
</g>
<g xmlns="http://www.w3.org/2000/svg">
</g>
</g></svg>
