<?xml version="1.0"?>
<svg xmlns="http://www.w3.org/2000/svg" xmlns:xlink="http://www.w3.org/1999/xlink" xmlns:svgjs="http://svgjs.com/svgjs" version="1.1" width="512" height="512" x="0" y="0" viewBox="0 0 682.66669 682.66669" style="enable-background:new 0 0 512 512" xml:space="preserve"><g><path xmlns="http://www.w3.org/2000/svg" d="m221.953125 640h-116.558594v-129.960938h53.699219c15.863281 0 28.765625-12.882812 28.765625-28.714843v-298.089844h152.789063v191.570313c90.292968-7.078126 160.90625-59.984376 160.90625-123.511719 0-32-18.054688-62.511719-50.828126-85.917969-34.671874-24.765625-81.101562-38.40625-130.726562-38.40625s-96.050781 13.640625-130.726562 38.40625c-32.773438 23.40625-50.828126 53.921875-50.828126 85.917969 0 21.601562 8.398438 42.957031 24.289063 61.75l12.417969 14.691406-103.589844 82.949219-11.878906-13.023438c-39.050782-42.800781-59.683594-93.410156-59.683594-146.367187 0-68.046875 33.921875-131.714844 95.515625-179.265625 60.167969-46.445313 139.890625-72.027344 224.484375-72.027344s164.316406 25.582031 224.484375 72.027344c61.59375 47.550781 95.515625 111.21875 95.515625 179.265625 0 67.777343-33.691406 131.261719-94.863281 178.753906-55.289063 42.925781-127.304688 68.1875-204.488281 72.019531v19.457032c0 65.328124-53.246094 118.476562-118.695313 118.476562zm0 0" fill="#ffffff" data-original="#000000" style=""/></g></svg>
